<svg width="867" height="916" viewBox="0 0 867 916" fill="none" xmlns="http://www.w3.org/2000/svg">
<g opacity="0.4">
<rect x="-207" width="1074" height="916" fill="#E63946"/>
<g filter="url(#filter0_d_7_39)">
<g opacity="0.3" filter="url(#filter1_di_7_39)">
<path d="M738.884 158.41C721.847 140.851 701.618 126.922 679.353 117.419C657.088 107.915 633.224 103.024 609.124 103.024C585.024 103.024 561.159 107.915 538.895 117.419C516.63 126.922 496.401 140.851 479.363 158.41L444.005 194.834L408.646 158.41C374.231 122.959 327.555 103.042 278.885 103.042C230.216 103.042 183.539 122.959 149.125 158.41C114.71 193.861 95.3761 241.944 95.3761 292.079C95.3761 342.215 114.71 390.297 149.125 425.749L444.005 729.511L738.884 425.749C755.93 408.198 769.452 387.36 778.677 364.424C787.902 341.489 792.651 316.906 792.651 292.079C792.651 267.253 787.902 242.67 778.677 219.735C769.452 196.799 755.93 175.961 738.884 158.41Z" fill="#E63946"/>
</g>
</g>
<g opacity="0.5" filter="url(#filter2_di_7_39)">
<path d="M519.495 233.949C502.458 216.39 482.229 202.46 459.964 192.957C437.7 183.454 413.835 178.563 389.735 178.563C365.635 178.563 341.77 183.454 319.506 192.957C297.241 202.46 277.012 216.39 259.975 233.949L224.616 270.373L189.257 233.949C154.842 198.497 108.166 178.581 59.4962 178.581C10.8266 178.581 -35.8497 198.497 -70.2643 233.949C-104.679 269.4 -124.013 317.482 -124.013 367.618C-124.013 417.753 -104.679 465.836 -70.2643 501.287L224.616 805.049L519.495 501.287C536.541 483.736 550.063 462.898 559.288 439.963C568.513 417.027 573.262 392.444 573.262 367.618C573.262 342.792 568.513 318.208 559.288 295.273C550.063 272.338 536.541 251.499 519.495 233.949Z" fill="#FE6D6D"/>
</g>
</g>
<defs>
<filter id="filter0_d_7_39" x="38.7151" y="0" width="810.579" height="834.695" filterUnits="userSpaceOnUse" color-interpolation-filters="sRGB">
<feFlood flood-opacity="0" result="BackgroundImageFix"/>
<feColorMatrix in="SourceAlpha" type="matrix" values="0 0 0 0 0 0 0 0 0 0 0 0 0 0 0 0 0 0 127 0" result="hardAlpha"/>
<feMorphology radius="1" operator="dilate" in="SourceAlpha" result="effect1_dropShadow_7_39"/>
<feOffset dy="5"/>
<feGaussianBlur stdDeviation="2"/>
<feComposite in2="hardAlpha" operator="out"/>
<feColorMatrix type="matrix" values="0 0 0 0 0 0 0 0 0 0 0 0 0 0 0 0 0 0 0.25 0"/>
<feBlend mode="normal" in2="BackgroundImageFix" result="effect1_dropShadow_7_39"/>
<feBlend mode="normal" in="SourceGraphic" in2="effect1_dropShadow_7_39" result="shape"/>
</filter>
<filter id="filter1_di_7_39" x="78.3761" y="97.0241" width="725.275" height="654.487" filterUnits="userSpaceOnUse" color-interpolation-filters="sRGB">
<feFlood flood-opacity="0" result="BackgroundImageFix"/>
<feColorMatrix in="SourceAlpha" type="matrix" values="0 0 0 0 0 0 0 0 0 0 0 0 0 0 0 0 0 0 127 0" result="hardAlpha"/>
<feMorphology radius="4" operator="dilate" in="SourceAlpha" result="effect1_dropShadow_7_39"/>
<feOffset dx="-3" dy="8"/>
<feGaussianBlur stdDeviation="5"/>
<feComposite in2="hardAlpha" operator="out"/>
<feColorMatrix type="matrix" values="0 0 0 0 0.831373 0 0 0 0 0.160784 0 0 0 0 0.160784 0 0 0 0.3 0"/>
<feBlend mode="normal" in2="BackgroundImageFix" result="effect1_dropShadow_7_39"/>
<feBlend mode="normal" in="SourceGraphic" in2="effect1_dropShadow_7_39" result="shape"/>
<feColorMatrix in="SourceAlpha" type="matrix" values="0 0 0 0 0 0 0 0 0 0 0 0 0 0 0 0 0 0 127 0" result="hardAlpha"/>
<feOffset dx="-20" dy="8"/>
<feGaussianBlur stdDeviation="5.45"/>
<feComposite in2="hardAlpha" operator="arithmetic" k2="-1" k3="1"/>
<feColorMatrix type="matrix" values="0 0 0 0 1 0 0 0 0 1 0 0 0 0 1 0 0 0 0.2 0"/>
<feBlend mode="normal" in2="shape" result="effect2_innerShadow_7_39"/>
</filter>
<filter id="filter2_di_7_39" x="-141.013" y="172.562" width="725.275" height="654.487" filterUnits="userSpaceOnUse" color-interpolation-filters="sRGB">
<feFlood flood-opacity="0" result="BackgroundImageFix"/>
<feColorMatrix in="SourceAlpha" type="matrix" values="0 0 0 0 0 0 0 0 0 0 0 0 0 0 0 0 0 0 127 0" result="hardAlpha"/>
<feMorphology radius="4" operator="dilate" in="SourceAlpha" result="effect1_dropShadow_7_39"/>
<feOffset dx="-3" dy="8"/>
<feGaussianBlur stdDeviation="5"/>
<feComposite in2="hardAlpha" operator="out"/>
<feColorMatrix type="matrix" values="0 0 0 0 0.831373 0 0 0 0 0.160784 0 0 0 0 0.160784 0 0 0 0.3 0"/>
<feBlend mode="normal" in2="BackgroundImageFix" result="effect1_dropShadow_7_39"/>
<feBlend mode="normal" in="SourceGraphic" in2="effect1_dropShadow_7_39" result="shape"/>
<feColorMatrix in="SourceAlpha" type="matrix" values="0 0 0 0 0 0 0 0 0 0 0 0 0 0 0 0 0 0 127 0" result="hardAlpha"/>
<feOffset dx="-20" dy="8"/>
<feGaussianBlur stdDeviation="5.45"/>
<feComposite in2="hardAlpha" operator="arithmetic" k2="-1" k3="1"/>
<feColorMatrix type="matrix" values="0 0 0 0 1 0 0 0 0 1 0 0 0 0 1 0 0 0 0.2 0"/>
<feBlend mode="normal" in2="shape" result="effect2_innerShadow_7_39"/>
</filter>
</defs>
</svg>
