<svg width="872" height="1057" viewBox="0 0 872 1057" fill="none" xmlns="http://www.w3.org/2000/svg">
<g opacity="0.4">
<g filter="url(#filter0_d_3_34)">
<g filter="url(#filter1_di_3_34)">
<path d="M966.455 203.032C942.769 180.527 914.645 162.674 883.692 150.494C852.739 138.314 819.562 132.045 786.056 132.045C752.551 132.045 719.374 138.314 688.42 150.494C657.467 162.674 629.344 180.527 605.658 203.032L556.5 249.716L507.342 203.032C459.498 157.595 394.606 132.068 326.944 132.068C259.281 132.068 194.39 157.595 146.545 203.032C98.7003 248.47 71.8214 310.096 71.8214 374.354C71.8214 438.612 98.7003 500.239 146.545 545.676L556.5 935.005L966.455 545.676C990.152 523.182 1008.95 496.474 1021.78 467.078C1034.6 437.682 1041.2 406.174 1041.2 374.354C1041.2 342.535 1034.6 311.027 1021.78 281.631C1008.95 252.235 990.152 225.527 966.455 203.032Z" fill="#E96262"/>
</g>
</g>
</g>
<defs>
<filter id="filter0_d_3_34" x="-5" y="0" width="1123" height="1067" filterUnits="userSpaceOnUse" color-interpolation-filters="sRGB">
<feFlood flood-opacity="0" result="BackgroundImageFix"/>
<feColorMatrix in="SourceAlpha" type="matrix" values="0 0 0 0 0 0 0 0 0 0 0 0 0 0 0 0 0 0 127 0" result="hardAlpha"/>
<feMorphology radius="1" operator="dilate" in="SourceAlpha" result="effect1_dropShadow_3_34"/>
<feOffset dy="5"/>
<feGaussianBlur stdDeviation="2"/>
<feComposite in2="hardAlpha" operator="out"/>
<feColorMatrix type="matrix" values="0 0 0 0 0 0 0 0 0 0 0 0 0 0 0 0 0 0 0.25 0"/>
<feBlend mode="normal" in2="BackgroundImageFix" result="effect1_dropShadow_3_34"/>
<feBlend mode="normal" in="SourceGraphic" in2="effect1_dropShadow_3_34" result="shape"/>
</filter>
<filter id="filter1_di_3_34" x="54.8214" y="126.045" width="997.382" height="830.96" filterUnits="userSpaceOnUse" color-interpolation-filters="sRGB">
<feFlood flood-opacity="0" result="BackgroundImageFix"/>
<feColorMatrix in="SourceAlpha" type="matrix" values="0 0 0 0 0 0 0 0 0 0 0 0 0 0 0 0 0 0 127 0" result="hardAlpha"/>
<feMorphology radius="4" operator="dilate" in="SourceAlpha" result="effect1_dropShadow_3_34"/>
<feOffset dx="-3" dy="8"/>
<feGaussianBlur stdDeviation="5"/>
<feComposite in2="hardAlpha" operator="out"/>
<feColorMatrix type="matrix" values="0 0 0 0 0.831373 0 0 0 0 0.160784 0 0 0 0 0.160784 0 0 0 0.3 0"/>
<feBlend mode="normal" in2="BackgroundImageFix" result="effect1_dropShadow_3_34"/>
<feBlend mode="normal" in="SourceGraphic" in2="effect1_dropShadow_3_34" result="shape"/>
<feColorMatrix in="SourceAlpha" type="matrix" values="0 0 0 0 0 0 0 0 0 0 0 0 0 0 0 0 0 0 127 0" result="hardAlpha"/>
<feOffset dx="-20" dy="8"/>
<feGaussianBlur stdDeviation="5.45"/>
<feComposite in2="hardAlpha" operator="arithmetic" k2="-1" k3="1"/>
<feColorMatrix type="matrix" values="0 0 0 0 1 0 0 0 0 0.675 0 0 0 0 0.675 0 0 0 0.2 0"/>
<feBlend mode="normal" in2="shape" result="effect2_innerShadow_3_34"/>
</filter>
</defs>
</svg>
